<?xml version="1.0" encoding="UTF-8" standalone="no"?>
<!DOCTYPE svg PUBLIC "-//W3C//DTD SVG 1.1//EN" "http://www.w3.org/Graphics/SVG/1.1/DTD/svg11.dtd">
<svg width="100%" height="100%" viewBox="0 0 600 600" version="1.1" xmlns="http://www.w3.org/2000/svg" xmlns:xlink="http://www.w3.org/1999/xlink" xml:space="preserve" xmlns:serif="http://www.serif.com/" style="fill-rule:evenodd;clip-rule:evenodd;stroke-linecap:round;stroke-linejoin:round;stroke-miterlimit:1.5;">
    <g transform="matrix(1.65152,-0.383338,0.465306,2.00466,-374.468,-186.477)">
        <path d="M446.276,292.375C446.276,290.88 444.803,289.667 442.988,289.667L190.119,289.667C188.304,289.667 186.831,290.88 186.831,292.375L186.831,297.792C186.831,299.287 188.304,300.501 190.119,300.501L442.988,300.501C444.803,300.501 446.276,299.287 446.276,297.792L446.276,292.375Z" style="fill:rgb(203,52,0);stroke:black;stroke-width:1.1px;"/>
    </g>
    <g transform="matrix(1.65152,-0.383338,0.465306,2.00466,-366.642,-195.521)">
        <path d="M458.707,321.885C458.707,318.619 455.489,315.968 451.525,315.968L172.153,315.968C168.19,315.968 164.972,318.619 164.972,321.885L164.972,333.718C164.972,336.983 168.19,339.634 172.153,339.634L451.525,339.634C455.489,339.634 458.707,336.983 458.707,333.718L458.707,321.885Z" style="fill:rgb(141,54,5);stroke:black;stroke-width:1.1px;"/>
    </g>
    <g transform="matrix(1.65152,-0.383338,0.465306,2.00466,-366.642,-195.521)">
        <path d="M175.243,313.978C175.243,313.978 283.811,325.426 296.584,330.9C314.495,327.032 420.555,316.679 448.031,314.435C480.383,311.792 171.156,305.767 175.243,313.978Z" style="fill:rgb(255,191,0);stroke:black;stroke-width:1.1px;"/>
    </g>
    <g transform="matrix(1.65152,-0.383338,0.465306,2.00466,-366.642,-195.521)">
        <path d="M179.134,309.653C179.134,309.653 195.859,316.017 207.834,312.596C219.808,309.174 224.16,308.575 233.854,311.426C243.547,314.277 255.542,314.785 261.244,312.504C266.946,310.223 275.787,309.069 282.059,309.069C288.331,309.069 295.326,315.046 308.44,312.195C321.555,309.344 318.368,307.633 338.895,310.484C359.423,313.335 365.592,315.925 375.855,313.074C386.119,310.223 392.505,317.467 402.199,314.045C411.892,310.624 417.948,310.484 427.071,311.625C436.194,312.765 455.09,312.163 442.545,308.172C430.001,304.18 411.779,298.565 402.085,302.556C392.392,306.547 373.454,304.085 365.471,304.085C357.488,304.085 318.732,299.314 314.74,302.165C310.749,305.016 282.444,293.433 275.602,297.994C268.759,302.556 239.342,303.36 229.649,298.798C219.955,294.236 219.618,303.566 196.81,302.426C174.002,301.285 167.159,315.925 179.134,309.653Z" style="fill:rgb(96,203,0);stroke:black;stroke-width:1.1px;"/>
    </g>
    <g transform="matrix(1.65152,-0.383338,0.465306,2.00466,-373.878,-196.764)">
        <path d="M475.356,348.255C475.356,344.243 471.402,340.985 466.532,340.985L164.864,340.985C159.994,340.985 156.04,344.243 156.04,348.255L156.04,362.796C156.04,366.808 159.994,370.066 164.864,370.066L466.532,370.066C471.402,370.066 475.356,366.808 475.356,362.796L475.356,348.255Z" style="fill:rgb(239,170,60);stroke:black;stroke-width:1.1px;"/>
    </g>
    <g transform="matrix(1.65152,-0.383338,0.465306,2.00466,-366.642,-195.521)">
        <path d="M311.707,291.947C311.707,291.947 205.459,293.918 157.479,291.858C151.271,273.75 167.684,247.121 173.146,243.48C198.805,226.373 279.153,217.205 304.864,216.68C332.804,216.11 416.055,225.803 438.863,236.637C456.238,244.89 477.563,268.899 471.365,291.132C438.65,293.174 311.707,291.947 311.707,291.947Z" style="fill:rgb(239,170,60);stroke:black;stroke-width:1.1px;"/>
    </g>
    <g transform="matrix(1.4952,0.284683,-0.104597,1.6475,-187.81,-291.749)">
        <path d="M269.591,235.289C269.591,235.289 266.74,241.018 266.74,243.474C266.74,244.936 268.018,246.123 269.591,246.123C271.165,246.123 272.442,244.936 272.442,243.474C272.442,241.018 269.591,235.289 269.591,235.289Z" style="fill:rgb(147,96,14);"/>
    </g>
    <g transform="matrix(1.382,0.215809,-0.0598511,1.54031,-67.6344,-275.75)">
        <path d="M269.591,235.289C269.591,235.289 266.74,241.05 266.74,243.518C266.74,244.956 268.018,246.123 269.591,246.123C271.165,246.123 272.442,244.956 272.442,243.518C272.442,241.05 269.591,235.289 269.591,235.289Z" style="fill:rgb(147,96,14);"/>
    </g>
    <g transform="matrix(0.93334,-0.969305,0.93296,1.24412,-224.085,140.167)">
        <path d="M269.591,235.289C269.591,235.289 266.74,241.123 266.74,243.624C266.74,245.003 268.018,246.123 269.591,246.123C271.165,246.123 272.442,245.003 272.442,243.624C272.442,241.123 269.591,235.289 269.591,235.289Z" style="fill:rgb(147,96,14);"/>
    </g>
    <g transform="matrix(1.1633,-0.788789,0.700159,1.33231,-268.168,49.8428)">
        <path d="M269.591,235.289C269.591,235.289 266.74,240.997 266.74,243.444C266.74,244.923 268.018,246.123 269.591,246.123C271.165,246.123 272.442,244.923 272.442,243.444C272.442,240.997 269.591,235.289 269.591,235.289Z" style="fill:rgb(147,96,14);"/>
    </g>
    <g transform="matrix(1.38388,0.136385,0.00335723,1.45442,-112.735,-250.775)">
        <path d="M269.591,235.289C269.591,235.289 266.74,240.955 266.74,243.383C266.74,244.895 268.018,246.123 269.591,246.123C271.165,246.123 272.442,244.895 272.442,243.383C272.442,240.955 269.591,235.289 269.591,235.289Z" style="fill:rgb(147,96,14);"/>
    </g>
    <g transform="matrix(1.24047,-0.925089,0.836171,1.47083,-227.193,22.1775)">
        <path d="M269.591,235.289C269.591,235.289 266.74,241.033 266.74,243.495C266.74,244.946 268.018,246.123 269.591,246.123C271.165,246.123 272.442,244.946 272.442,243.495C272.442,241.033 269.591,235.289 269.591,235.289Z" style="fill:rgb(147,96,14);"/>
    </g>
    <g transform="matrix(1.58829,0.17401,-0.00884369,1.59923,-267.136,-271.676)">
        <path d="M269.591,235.289C269.591,235.289 266.74,240.868 266.74,243.259C266.74,244.84 268.018,246.123 269.591,246.123C271.165,246.123 272.442,244.84 272.442,243.259C272.442,240.868 269.591,235.289 269.591,235.289Z" style="fill:rgb(147,96,14);"/>
    </g>
    <g transform="matrix(1.34862,0.192634,-0.0427006,1.457,-126.006,-200.104)">
        <path d="M269.591,235.289C269.591,235.289 266.74,240.996 266.74,243.441C266.74,244.921 268.018,246.123 269.591,246.123C271.165,246.123 272.442,244.921 272.442,243.441C272.442,240.996 269.591,235.289 269.591,235.289Z" style="fill:rgb(147,96,14);"/>
    </g>
    <g transform="matrix(1.38094,-0.320532,0.354965,1.52928,-225.954,-149.156)">
        <path d="M269.591,235.289C269.591,235.289 266.74,241.071 266.74,243.549C266.74,244.969 268.018,246.123 269.591,246.123C271.165,246.123 272.442,244.969 272.442,243.549C272.442,241.071 269.591,235.289 269.591,235.289Z" style="fill:rgb(147,96,14);"/>
    </g>
</svg>
