<?xml version="1.0" encoding="UTF-8" standalone="no"?>
<!DOCTYPE svg PUBLIC "-//W3C//DTD SVG 1.1//EN" "http://www.w3.org/Graphics/SVG/1.1/DTD/svg11.dtd">
<svg width="100%" height="100%" viewBox="0 0 1024 600" version="1.1" xmlns="http://www.w3.org/2000/svg" xmlns:xlink="http://www.w3.org/1999/xlink" xml:space="preserve" xmlns:serif="http://www.serif.com/" style="fill-rule:evenodd;clip-rule:evenodd;stroke-linecap:round;stroke-linejoin:round;stroke-miterlimit:1.5;">
    <g id="CatHead" transform="matrix(0.803094,-0.0510841,0.0510841,0.803094,125.843,65.6954)">
        <g transform="matrix(0.926037,-0.377432,0.377432,0.926037,-48.5411,157.685)">
            <circle cx="686.217" cy="233.813" r="66.948" style="fill:rgb(155,197,206);stroke:rgb(36,83,98);stroke-width:1.24px;"/>
        </g>
        <g transform="matrix(1.83415,-0.747557,0.747557,1.83415,-412.825,294.461)">
            <path d="M534.85,149.795C534.85,149.795 526.144,148.548 522.484,145.15C518.825,141.752 516.533,137.956 515.968,133.075C515.458,128.659 515.719,124.841 516.765,122.227C517.811,119.613 518.512,117.643 519.95,116.205C519.848,113.83 517.989,109.931 520.734,104.573C523.546,103.764 529.883,108.64 532.236,109.294C535.659,108.14 541.941,107.677 543.345,107.783C545.857,107.971 551.347,108.436 553.801,109.409C555.787,108.775 562.141,104.053 565.041,104.834C566.47,106.418 566.218,113.722 565.695,116.074C566.31,118.159 568.591,119.916 569.616,123.132C570.209,124.993 570.511,129.283 570.269,131.758C569.804,136.517 568.277,138.414 566.272,141.752C564.08,145.399 556.154,149.451 551.187,149.664C551.641,151.082 552.924,154.637 553.16,155.456C545.528,158.024 535.673,156.965 532.626,155.686C532.406,154.303 534.85,149.795 534.85,149.795Z" style="fill:rgb(5,5,5);"/>
        </g>
        <g transform="matrix(0.926037,-0.377432,0.377432,0.926037,-17.7445,277.652)">
            <path d="M735.283,178.05C735.283,175.409 733.138,173.264 730.496,173.264L676.65,173.264C674.008,173.264 671.863,175.409 671.863,178.05L671.863,187.623C671.863,190.265 674.008,192.409 676.65,192.409L730.496,192.409C733.138,192.409 735.283,190.265 735.283,187.623L735.283,178.05Z" style="fill:rgb(36,83,98);stroke:rgb(155,197,206);stroke-width:1.24px;"/>
        </g>
    </g>
    <g id="CatPaws">
        <g transform="matrix(0.429308,-1.18781,1.13471,0.410116,108.071,849.988)">
            <circle cx="609.109" cy="215.424" r="3.319" style="fill:rgb(13,12,30);"/>
        </g>
        <g transform="matrix(0.30456,-0.84266,0.84266,0.30456,250.284,661.596)">
            <circle cx="612.737" cy="207.691" r="1.281" style="fill:rgb(13,12,30);"/>
        </g>
        <g transform="matrix(0.30456,-0.84266,0.84266,0.30456,245.813,667.352)">
            <circle cx="612.737" cy="207.691" r="1.281" style="fill:rgb(13,12,30);"/>
        </g>
        <g transform="matrix(0.30456,-0.84266,0.84266,0.30456,246.781,671.288)">
            <circle cx="612.737" cy="207.691" r="1.281" style="fill:rgb(13,12,30);"/>
        </g>
        <g transform="matrix(0.30456,-0.84266,0.84266,0.30456,246.959,664.18)">
            <circle cx="612.737" cy="207.691" r="1.281" style="fill:rgb(13,12,30);"/>
        </g>
        <g transform="matrix(1.26215,0.046822,-0.0447288,1.20572,14.6862,-170.846)">
            <circle cx="609.109" cy="215.424" r="3.319" style="fill:rgb(13,12,30);"/>
        </g>
        <g transform="matrix(0.895394,0.0332165,-0.0332165,0.895394,237.461,-92.825)">
            <circle cx="612.737" cy="207.691" r="1.281" style="fill:rgb(13,12,30);"/>
        </g>
        <g transform="matrix(0.895394,0.0332165,-0.0332165,0.895394,230.616,-95.3289)">
            <circle cx="612.737" cy="207.691" r="1.281" style="fill:rgb(13,12,30);"/>
        </g>
        <g transform="matrix(0.895394,0.0332165,-0.0332165,0.895394,227.162,-93.207)">
            <circle cx="612.737" cy="207.691" r="1.281" style="fill:rgb(13,12,30);"/>
        </g>
        <g transform="matrix(0.895394,0.0332165,-0.0332165,0.895394,233.986,-95.2039)">
            <circle cx="612.737" cy="207.691" r="1.281" style="fill:rgb(13,12,30);"/>
        </g>
    </g>
    <g id="CatBody">
        <g transform="matrix(1.32768,-0.330007,0.295973,1.19075,18.6121,141.476)">
            <path d="M485.156,208.18C485.156,208.18 493.353,202.492 496.197,202.576C499.041,202.659 500.463,207.846 500.547,208.849C500.63,209.853 493.353,216.294 489.84,215.123C486.327,213.952 487.163,213.199 487.163,213.199C487.163,213.199 484.486,209.769 485.156,208.18Z" style="fill:none;stroke:rgb(249,11,24);stroke-width:0.77px;"/>
        </g>
        <g transform="matrix(1.32768,-0.330007,0.295973,1.19075,18.6121,141.476)">
            <path d="M464.018,212.954C464.018,212.954 479.702,213.016 484.407,210.34C485.742,211.972 486.394,213.079 487.251,213.832C485.766,216.425 470.814,217.889 466.109,216.613C465.335,216.592 464.875,214.417 464.018,212.954Z" style="fill:none;stroke:rgb(249,11,24);stroke-width:0.77px;"/>
        </g>
        <g transform="matrix(1.32768,-0.330007,0.295973,1.19075,18.6121,141.476)">
            <path d="M498.732,203.567C498.732,203.567 515.043,190.459 517.553,184.433C518.891,185.601 519.518,186.667 520.689,187.546C520.94,190.097 506.39,206.462 500.823,207.412C500.342,206.555 500.091,205.473 498.732,203.567Z" style="fill:none;stroke:rgb(249,11,24);stroke-width:0.77px;"/>
        </g>
        <g transform="matrix(1.32768,-0.330007,0.295973,1.19075,18.6121,141.476)">
            <path d="M507.701,160.766C507.701,160.766 526.229,151.953 523.473,146.736C522.156,144.242 528.361,136.624 528.616,135.347C528.871,134.071 524.385,130.103 526.75,127.786C529.917,127.075 530.366,129.94 531.934,130.48C532.7,131.756 534.153,121.423 537.551,120.286C540.589,119.27 545.719,119.776 546.996,123.094C548.272,126.413 545.999,136.958 543.895,139.699C543.531,143.578 542.012,155.623 541.124,157.271C538.899,157.38 537.04,157.289 537.04,157.289C537.04,157.289 532.731,167.262 530.081,169.822C527.761,172.062 516.873,179.51 514.576,179.254" style="fill:none;stroke:rgb(13,11,249);stroke-width:0.77px;"/>
        </g>
        <g transform="matrix(1.32768,-0.330007,0.295973,1.19075,18.6121,141.476)">
            <path d="M448.297,176.279C448.297,176.279 444.922,176.847 442.464,177.115C438.723,177.524 435.345,177.961 435.353,175.878C431.512,174.509 423.994,174.655 421.129,172.591C420.856,169.44 422.066,165.33 418.849,164.449C416.133,165.073 416.296,168.687 416.041,170.729C414.363,169.426 413.284,166.633 411.991,166.191C407.971,164.817 405.474,164.524 403.039,167.248C401.137,169.376 400.329,175.953 402.477,179.739C404.231,182.832 410.483,185.269 413.99,185.958C417.396,188.133 426.177,196.877 429.909,196.767C430.964,195.437 434.874,196.685 439.854,196.766C444.856,196.847 451.254,197.324 455.272,195.121" style="fill:none;stroke:rgb(13,11,249);stroke-width:0.77px;"/>
        </g>
        <g transform="matrix(1.32768,-0.330007,0.295973,1.19075,18.6121,141.476)">
            <path d="M506.941,221.784C507.333,222.961 509.555,232.794 509.555,232.794" style="fill:none;stroke:rgb(13,11,249);stroke-width:0.77px;"/>
        </g>
        <g transform="matrix(1.32768,-0.330007,0.295973,1.19075,18.6121,141.476)">
            <path d="M524.765,228.55C524.765,228.55 515.994,220.8 512.676,220.8C509.357,220.8 503.367,221.341 503.367,222.362" style="fill:none;stroke:rgb(13,11,249);stroke-width:0.77px;"/>
        </g>
        <g transform="matrix(1.32768,-0.330007,0.295973,1.19075,18.6121,141.476)">
            <path d="M513.952,181.743C513.952,181.743 537.864,209.533 539.906,216.681" style="fill:none;stroke:rgb(13,11,249);stroke-width:0.77px;"/>
        </g>
        <g transform="matrix(1.32768,-0.330007,0.295973,1.19075,18.6121,141.476)">
            <path d="M456.26,173.575C456.26,173.575 457.357,193.389 462.898,207.781C466.515,217.179 480.441,238.439 490.397,244.565" style="fill:none;stroke:rgb(13,11,249);stroke-width:0.77px;"/>
        </g>
        <g transform="matrix(1.32768,-0.330007,0.295973,1.19075,18.6121,141.476)">
            <path d="M455.685,173.496C455.685,173.496 453.242,172.958 452.068,172.748C451.007,172.558 449.966,173.562 449.623,174.621C449.06,176.362 449.115,178.813 449.718,181.861C450.337,184.993 451.979,189.849 453.65,192.317C454.889,194.147 455.946,195.323 457.253,196.238C458.686,195.656 455.031,177.156 455.685,173.496Z" style="fill:none;stroke:rgb(249,11,24);stroke-width:0.77px;"/>
        </g>
        <g transform="matrix(1.32768,-0.330007,0.295973,1.19075,18.6121,141.476)">
            <path d="M502.011,162.116C502.011,162.116 505.357,160.108 506.695,160.71C508.033,161.313 509.305,165.06 510.041,167.001C510.777,168.941 513.588,176.838 513.655,178.577C513.721,180.317 513.119,180.786 512.517,181.321C511.915,181.856 510.844,181.455 510.108,181.254C509.372,181.053 504.687,176.035 503.951,173.559C503.215,171.083 500.204,165.461 502.011,162.116Z" style="fill:none;stroke:rgb(249,11,24);stroke-width:0.77px;"/>
        </g>
        <g transform="matrix(1.32768,-0.330007,0.295973,1.19075,18.6121,141.476)">
            <path d="M490.48,245.084C490.48,245.084 507.837,236.406 509.406,232.956C511.831,237.107 513.414,245.021 514.424,247.908C515.573,251.188 505.391,260.657 499.786,260.246C496.82,260.028 493.994,255.852 493.576,253.551C493.158,251.251 490.794,245.294 490.48,245.084Z" style="fill:none;stroke:rgb(249,11,24);stroke-width:0.77px;"/>
        </g>
        <g transform="matrix(1.32768,-0.330007,0.295973,1.19075,18.6121,141.476)">
            <path d="M524.503,228.765C524.503,228.765 538.623,224.566 540.028,217.054C542.399,219.276 548.259,226.339 549.263,228.681C550.267,231.023 548.527,243.202 535.143,241.529C531.463,240.191 526.645,230.79 524.503,228.765Z" style="fill:none;stroke:rgb(249,11,24);stroke-width:0.77px;"/>
        </g>
        <g transform="matrix(1.32768,-0.330007,0.295973,1.19075,18.6121,141.476)">
            <path d="M467.774,217.476C467.774,217.476 449.482,232.919 448.316,243C447.653,248.738 447.46,258.448 450.456,262.731C455.454,269.875 467.176,274.648 470.575,271.205C473.678,268.061 472.035,265.219 470.402,264.075C468.768,262.932 458.625,257.83 459.115,248.517C459.605,239.205 467.634,228.556 472.698,225.289" style="fill:none;stroke:rgb(13,11,249);stroke-width:0.77px;"/>
        </g>
    </g>
</svg>
