<?xml version="1.0" encoding="UTF-8" standalone="no"?>
<!DOCTYPE svg PUBLIC "-//W3C//DTD SVG 1.1//EN" "http://www.w3.org/Graphics/SVG/1.1/DTD/svg11.dtd">
<svg width="100%" height="100%" viewBox="0 0 1024 600" version="1.1" xmlns="http://www.w3.org/2000/svg" xmlns:xlink="http://www.w3.org/1999/xlink" xml:space="preserve" xmlns:serif="http://www.serif.com/" style="fill-rule:evenodd;clip-rule:evenodd;stroke-linecap:round;stroke-linejoin:round;stroke-miterlimit:1.5;">
    <g transform="matrix(1,0,0,1,-28.9094,-115.637)">
        <circle cx="686.217" cy="233.813" r="66.948" style="fill:rgb(235,235,235);"/>
    </g>
    <g transform="matrix(1,0,0,1,-37.0113,-115.014)">
        <path d="M703.616,298.095L701.123,288.747C701.123,288.747 675.571,285.007 669.339,266.311C663.106,247.614 663.106,250.73 663.73,235.773C664.353,220.815 655.628,215.206 655.628,215.206L669.339,218.945C669.339,218.945 680.557,209.597 694.268,210.22C707.979,210.844 704.863,191.524 704.863,191.524L715.457,208.351C715.457,208.351 731.661,215.829 733.531,228.294C735.401,240.758 747.242,258.832 738.517,267.557C729.792,276.282 726.052,274.412 728.545,283.138C731.038,291.863 732.284,286.877 732.284,286.877" style="fill:none;stroke:black;stroke-width:1px;"/>
    </g>
    <g transform="matrix(1,0,0,1,-28.9094,-115.637)">
        <path d="M698.007,299.965C698.007,299.965 688.035,299.341 681.803,301.211C675.571,303.081 669.962,299.341 672.455,308.067C674.948,316.792 664.976,326.14 679.31,328.633C693.645,331.126 764.692,311.806 768.432,296.225C772.171,280.645 774.041,265.064 766.562,267.557C759.083,270.05 747.242,265.687 742.879,271.296C738.517,276.905 714.211,295.602 712.341,294.979C710.472,294.356 698.007,299.965 698.007,299.965Z" style="fill:none;stroke:black;stroke-width:1px;"/>
    </g>
</svg>
