<?xml version="1.0" encoding="UTF-8" standalone="no"?>
<!DOCTYPE svg PUBLIC "-//W3C//DTD SVG 1.1//EN" "http://www.w3.org/Graphics/SVG/1.1/DTD/svg11.dtd">
<svg width="100%" height="100%" viewBox="0 0 1024 600" version="1.1" xmlns="http://www.w3.org/2000/svg" xmlns:xlink="http://www.w3.org/1999/xlink" xml:space="preserve" xmlns:serif="http://www.serif.com/" style="fill-rule:evenodd;clip-rule:evenodd;stroke-linecap:round;stroke-linejoin:round;stroke-miterlimit:1.5;">
    <g id="CatBody">
        <path d="M752.736,240.14C752.434,238.924 760.226,236.303 764.632,235.208C769.038,234.112 782.977,240.446 782.977,240.446C782.977,240.446 784.221,240.516 786.118,239.061C786.183,239.011 790.794,237.16 794.813,232.294C798.896,227.35 800.274,222.999 799.79,221.809C795.919,212.288 752.449,187.68 752.236,187.711C752.236,187.711 752.841,189.729 752.828,186.57C752.826,186.1 754.713,185.613 755.018,185.467C759.097,183.51 770.403,171.956 772.652,168.761C775.414,164.838 778.182,151.541 778.182,151.541C778.182,151.541 780.677,151.036 783.6,150.172C784.29,147.917 782.742,133.073 782.078,128.334C784.06,124.376 783.957,111.069 781.28,107.538C778.603,104.008 771.642,105.099 767.909,107.312C763.734,109.786 764.864,122.57 763.469,121.303C761.227,121.178 759.783,117.914 755.788,119.806C753.335,123.346 760.465,126.59 760.504,128.194C760.543,129.798 754.56,140.918 757.047,143.452C762.25,148.754 738.7,165.661 738.7,165.661L738.783,165.78L732.985,169.624L724.528,171.01L723.95,171.144C723.95,171.144 680.439,192.807 679.851,193.14C678.462,193.927 676.086,195.552 675.82,197.587C676.717,203.732 683.713,216.798 684.557,224.254C685.152,229.506 691.982,232.564 694.689,236.132C702.274,246.129 727.775,267.088 742.807,271.098C750.588,273.174 742.625,271.398 742.625,271.398C742.625,271.398 748.729,267.687 753.577,262.817C759.128,257.241 764.249,251.6 764.117,251.334C762.832,248.73 758.039,239.339 757.31,238.272" style="fill:rgb(90,230,222);stroke:rgb(13,11,249);stroke-width:1px;"/>
        <path d="M778.182,151.541C778.182,151.541 781.852,151.032 783.515,150.067C784.205,145.592 782.863,134.955 782.058,128.482C784.528,123.232 783.793,110.513 781.161,107.439C779.194,105.142 776.621,105.2 775.099,105.209C772.997,105.222 769.486,106.364 767.78,107.407C765.806,108.616 764.447,113.547 763.86,121.416C762.027,121.243 758.548,117.554 756.125,119.687C753.558,121.947 756.933,124.815 760.682,128.11C759.292,130.977 756.857,137.541 756.543,140.469C756.23,143.397 757.505,144.207 758.331,144.998C759.313,145.937 764.166,152.027 778.182,151.541Z" style="fill:rgb(96,96,96);stroke:rgb(13,12,30);stroke-width:1px;"/>
        <g transform="matrix(1.32768,-0.330007,0.295973,1.19075,18.6121,141.476)">
            <path d="M485.156,208.18C485.156,208.18 493.353,202.492 496.197,202.576C499.041,202.659 500.463,207.846 500.547,208.849C500.63,209.853 493.318,216.419 489.84,215.123C487.475,214.241 487.091,213.409 487.091,213.409C487.091,213.409 484.486,209.769 485.156,208.18Z" style="fill:rgb(249,234,11);stroke:rgb(173,6,15);stroke-width:0.77px;"/>
        </g>
        <g transform="matrix(1.32768,-0.330007,0.295973,1.19075,18.6121,141.476)">
            <path d="M450.251,176.148C450.251,176.148 444.922,176.847 442.464,177.115C438.723,177.524 435.345,177.961 435.353,175.878C431.512,174.509 423.994,174.655 421.129,172.591C420.856,169.44 421.96,165.806 418.742,164.925C416.027,165.549 416.57,169.494 416.314,171.536C414.637,170.232 412.928,167.096 411.636,166.654C407.616,165.281 405.723,164.761 403.288,167.486C401.387,169.614 400.887,176.164 403.034,179.95C404.789,183.042 410.483,185.269 413.99,185.958C417.396,188.133 426.177,196.877 429.909,196.767C430.964,195.437 434.874,196.685 439.854,196.766C444.689,196.844 451.437,196.696 455.471,194.735C455.61,194.667 450.16,176.228 450.294,176.154C458.207,171.815 450.251,176.148 450.251,176.148Z" style="fill:rgb(90,230,222);stroke:rgb(13,11,249);stroke-width:0.77px;"/>
        </g>
        <g transform="matrix(1.32768,-0.330007,0.295973,1.19075,18.6121,141.476)">
            <path d="M455.685,173.496C455.685,173.496 453.242,172.958 452.068,172.748C451.007,172.558 449.966,173.562 449.623,174.621C449.06,176.362 449.115,178.813 449.718,181.861C450.337,184.993 451.979,189.849 453.65,192.317C454.889,194.147 455.946,195.323 457.253,196.238C458.686,195.656 455.031,177.156 455.685,173.496Z" style="fill:rgb(249,11,24);stroke:rgb(173,6,15);stroke-width:0.77px;"/>
        </g>
        <g transform="matrix(1.32768,-0.330007,0.295973,1.19075,18.6121,141.476)">
            <path d="M502.011,162.116C502.011,162.116 505.357,160.108 506.695,160.71C508.033,161.313 509.305,165.06 510.041,167.001C510.777,168.941 513.588,176.838 513.655,178.577C513.721,180.317 513.119,180.786 512.517,181.321C511.915,181.856 510.844,181.455 510.108,181.254C509.372,181.053 504.687,176.035 503.951,173.559C503.215,171.083 500.204,165.461 502.011,162.116Z" style="fill:rgb(249,11,24);stroke:rgb(173,6,15);stroke-width:0.77px;"/>
        </g>
        <g transform="matrix(1.32768,-0.330007,0.295973,1.19075,18.6121,141.476)">
            <path d="M490.48,245.084C490.48,245.084 507.837,236.406 509.406,232.956C511.831,237.107 513.414,245.021 514.424,247.908C515.573,251.188 505.391,260.657 499.786,260.246C496.82,260.028 493.994,255.852 493.576,253.551C493.158,251.251 490.794,245.294 490.48,245.084Z" style="fill:rgb(249,11,24);stroke:rgb(173,6,15);stroke-width:0.77px;"/>
        </g>
        <g transform="matrix(1.32768,-0.330007,0.295973,1.19075,18.6121,141.476)">
            <path d="M524.503,228.765C524.503,228.765 538.623,224.566 540.028,217.054C542.399,219.276 548.259,226.339 549.263,228.681C550.267,231.023 548.527,243.202 535.143,241.529C531.463,240.191 526.645,230.79 524.503,228.765Z" style="fill:rgb(249,11,24);stroke:rgb(173,6,15);stroke-width:0.77px;"/>
        </g>
        <g transform="matrix(1.32768,-0.330007,0.295973,1.19075,18.6121,141.476)">
            <path d="M467.774,217.476C467.774,217.476 449.482,232.919 448.316,243C447.653,248.738 447.46,258.448 450.456,262.731C455.454,269.875 467.176,274.648 470.575,271.205C473.678,268.061 472.035,265.219 470.402,264.075C468.768,262.932 458.625,257.83 459.115,248.517C459.593,239.434 467.865,228.893 472.941,225.356C473.003,225.313 471.601,223.48 470.336,221.591C468.964,219.541 467.719,217.423 467.784,217.381C472.849,214.113 467.774,217.476 467.774,217.476Z" style="fill:rgb(90,230,222);stroke:rgb(13,11,249);stroke-width:0.77px;"/>
        </g>
        <g transform="matrix(1.32768,-0.330007,0.295973,1.19075,18.6121,141.476)">
            <path d="M498.732,203.567C498.732,203.567 515.043,190.459 517.553,184.433C518.891,185.601 519.518,186.667 520.689,187.546C520.94,190.097 506.39,206.462 500.823,207.412C500.342,206.555 500.091,205.473 498.732,203.567Z" style="fill:rgb(249,11,24);stroke:rgb(173,6,15);stroke-width:0.77px;"/>
        </g>
        <g transform="matrix(1.32768,-0.330007,0.295973,1.19075,18.6121,141.476)">
            <path d="M464.018,212.954C464.018,212.954 480.309,212.609 485.014,209.932C486.349,211.565 486.218,213.174 487.075,213.927C485.59,216.52 470.814,217.889 466.109,216.613C465.335,216.592 464.875,214.417 464.018,212.954Z" style="fill:rgb(249,11,24);stroke:rgb(173,6,15);stroke-width:0.77px;"/>
        </g>
        <path d="M648.888,207.288C648.888,207.288 644.549,206.952 637.964,207.943C635.012,208.388 631.976,208.705 628.708,208.02C628.08,206.863 628.338,200.323 624.003,199.028C619.925,199.446 621.327,206.124 621.536,207.379C621.745,208.634 617.336,203.239 613.134,203.192C609.781,203.153 604.578,203.446 602.635,209.232C600.848,214.555 604.906,221.88 606.675,223.107C608.986,224.709 616.074,227.282 623.527,226.318C630.096,228.443 644.962,236.879 647.367,234.265C649.772,231.651 649.468,208.752 648.888,207.288Z" style="fill:rgb(96,96,96);stroke:rgb(13,12,30);stroke-width:1px;"/>
        <g transform="matrix(0.589821,-0.220956,0.220956,0.589821,255.857,185.58)">
            <path d="M641.405,264.227L643.335,270.17L649.584,270.17L644.529,273.843L646.46,279.785L641.405,276.112L636.349,279.785L638.28,273.843L633.225,270.17L639.474,270.17L641.405,264.227Z" style="fill:rgb(249,234,11);stroke:rgb(172,8,17);stroke-width:0.79px;"/>
        </g>
        <g transform="matrix(0.217143,-0.0813452,0.0720863,0.192428,538.452,210.801)">
            <path d="M641.405,264.227L643.335,270.17L649.584,270.17L644.529,273.843L646.46,279.785L641.405,276.112L636.349,279.785L638.28,273.843L633.225,270.17L639.474,270.17L641.405,264.227Z" style="fill:rgb(249,234,11);stroke:rgb(172,8,17);stroke-width:0.46px;"/>
        </g>
        <g transform="matrix(0.217143,-0.0813452,0.0720863,0.192428,542.668,207.455)">
            <path d="M641.405,264.227L643.335,270.17L649.584,270.17L644.529,273.843L646.46,279.785L641.405,276.112L636.349,279.785L638.28,273.843L633.225,270.17L639.474,270.17L641.405,264.227Z" style="fill:rgb(249,234,11);stroke:rgb(172,8,17);stroke-width:0.46px;"/>
        </g>
        <g transform="matrix(0.217143,-0.0813452,0.0720863,0.192428,543.003,201.767)">
            <path d="M641.405,264.227L643.335,270.17L649.584,270.17L644.529,273.843L646.46,279.785L641.405,276.112L636.349,279.785L638.28,273.843L633.225,270.17L639.474,270.17L641.405,264.227Z" style="fill:rgb(249,234,11);stroke:rgb(172,8,17);stroke-width:0.46px;"/>
        </g>
        <path d="M766.474,253.666C766.474,253.666 756.356,268.786 744.124,273.401" style="fill:none;stroke:rgb(249,234,11);stroke-width:1px;"/>
        <g transform="matrix(1,0,0,1,1.31222,1.69386)">
            <path d="M766.611,253.583C766.611,253.583 756.11,268.923 743.878,273.538" style="fill:none;stroke:rgb(249,234,11);stroke-width:0.5px;"/>
        </g>
        <path d="M802.939,223.425C802.939,223.425 802.946,236.019 786.086,243.077" style="fill:none;stroke:rgb(249,234,11);stroke-width:1px;"/>
        <g transform="matrix(1,0,0,1,2.15915,0.967174)">
            <path d="M802.973,223.322C802.973,223.322 802.5,236.396 785.64,243.454" style="fill:none;stroke:rgb(249,234,11);stroke-width:0.5px;"/>
        </g>
        <path d="M757.502,136.632C757.502,136.632 770.252,149.075 783.538,142.069" style="fill:none;stroke:rgb(249,234,11);stroke-width:1px;"/>
        <g transform="matrix(1,0,0,1,-0.104559,1.8277)">
            <path d="M756.92,136.426C756.92,136.426 770.663,149.212 783.949,142.206" style="fill:none;stroke:rgb(249,234,11);stroke-width:0.5px;"/>
        </g>
        <path d="M641.28,207.511C641.28,207.511 641.782,222.523 638.269,232.605" style="fill:none;stroke:rgb(249,234,11);stroke-width:1px;"/>
        <g transform="matrix(1,0,0,1,2.34213,0.501885)">
            <path d="M641.198,206.634C641.198,206.634 641.563,223.016 638.049,233.099" style="fill:none;stroke:rgb(249,234,11);stroke-width:0.5px;"/>
        </g>
    </g>
    <g id="CatHead" transform="matrix(0.803094,-0.0510841,0.0510841,0.803094,125.843,65.6954)">
        <g transform="matrix(0.881743,-0.359379,0.359379,0.881743,-12.8161,158.659)">
            <circle cx="686.217" cy="233.813" r="66.948" style="fill:rgb(155,197,206);stroke:rgb(13,12,30);stroke-width:1.31px;"/>
        </g>
        <g transform="matrix(1.78873,-0.729049,0.729049,1.78873,-384.373,295.626)">
            <path d="M534.85,149.795C534.85,149.795 526.144,148.548 522.484,145.15C518.825,141.752 516.533,137.956 515.968,133.075C515.458,128.659 515.719,124.841 516.765,122.227C517.811,119.613 518.512,117.643 519.95,116.205C519.848,113.83 517.989,109.931 520.734,104.573C523.546,103.764 529.883,108.64 532.236,109.294C535.659,108.14 541.941,107.677 543.345,107.783C545.857,107.971 551.347,108.436 553.801,109.409C555.787,108.775 562.141,104.053 565.041,104.834C566.47,106.418 566.218,113.722 565.695,116.074C566.31,118.159 568.591,119.916 569.616,123.132C570.209,124.993 570.511,129.283 570.269,131.758C569.804,136.517 568.277,138.414 566.272,141.752C564.08,145.399 556.154,149.451 551.187,149.664C551.641,151.082 552.924,154.637 553.16,155.456C545.528,158.024 535.673,156.965 532.626,155.686C532.406,154.303 534.85,149.795 534.85,149.795Z" style="fill:rgb(235,235,235);"/>
        </g>
        <g transform="matrix(0.926037,-0.377432,0.377432,0.926037,-17.7445,277.652)">
            <path d="M735.283,178.05C735.283,175.409 733.138,173.264 730.496,173.264L676.65,173.264C674.008,173.264 671.863,175.409 671.863,178.05L671.863,187.623C671.863,190.265 674.008,192.409 676.65,192.409L730.496,192.409C733.138,192.409 735.283,190.265 735.283,187.623L735.283,178.05Z" style="fill:rgb(38,36,250);stroke:rgb(13,12,30);stroke-width:1.24px;"/>
        </g>
        <g transform="matrix(1.21202,-0.274289,0.274289,1.21202,-140.589,15.2123)">
            <path d="M511.76,66.713C479.782,66.713 453.82,91.366 453.82,121.732C453.82,152.098 479.782,176.751 511.76,176.751C502.167,163.913 494.378,143.679 494.378,121.732C494.378,99.784 502.167,79.551 511.76,66.713Z" style="fill:rgb(249,234,11);stroke:rgb(249,234,11);stroke-width:0.5px;"/>
        </g>
        <g transform="matrix(1.48487,-0.389762,0.389762,1.48487,-374.806,278.142)">
            <path d="M815.338,50.159L817.141,55.71L822.978,55.71L818.256,59.141L820.06,64.692L815.338,61.261L810.616,64.692L812.419,59.141L807.697,55.71L813.534,55.71L815.338,50.159Z" style="fill:rgb(249,234,11);stroke:rgb(249,234,11);stroke-width:0.4px;"/>
        </g>
        <g transform="matrix(1.71039,0.667491,-0.667491,1.71039,-462.757,-627.834)">
            <path d="M820.207,117.35L821.354,120.882L825.069,120.882L822.064,123.066L823.212,126.598L820.207,124.415L817.202,126.598L818.349,123.066L815.344,120.882L819.059,120.882L820.207,117.35Z" style="fill:rgb(249,234,11);stroke:rgb(249,234,11);stroke-width:0.34px;"/>
        </g>
        <g transform="matrix(1.66667,0.552152,-0.552152,1.66667,-432.187,-463.017)">
            <path d="M734.514,58.923L735.661,62.455L739.376,62.455L736.371,64.639L737.519,68.171L734.514,65.988L731.509,68.171L732.656,64.639L729.651,62.455L733.366,62.455L734.514,58.923Z" style="fill:rgb(249,234,11);stroke:rgb(249,234,11);stroke-width:0.35px;"/>
        </g>
        <g transform="matrix(1.4938,-0.346911,0.346911,1.4938,-415.478,94.5936)">
            <path d="M595.506,265.365L597.146,270.412L602.452,270.412L598.159,273.531L599.799,278.577L595.506,275.458L591.213,278.577L592.853,273.531L588.56,270.412L593.866,270.412L595.506,265.365Z" style="fill:rgb(249,234,11);stroke:rgb(249,234,11);stroke-width:0.41px;"/>
        </g>
        <g transform="matrix(2.88753,0.438497,-0.438497,2.88753,-1097.64,-795.277)">
            <path d="M642.491,287.762L643.529,290.958L646.89,290.958L644.171,292.934L645.21,296.13L642.491,294.154L639.772,296.13L640.811,292.934L638.092,290.958L641.452,290.958L642.491,287.762Z" style="fill:rgb(249,234,11);stroke:rgb(249,234,11);stroke-width:0.21px;"/>
        </g>
        <g transform="matrix(-1.59164,-0.823972,0.823972,-1.59164,1702.12,1551.74)">
            <path d="M761.049,332.556L762.252,335.248L766.143,335.248L762.995,336.911L764.197,339.603L761.049,337.939L757.901,339.603L759.104,336.911L755.956,335.248L759.847,335.248L761.049,332.556Z" style="fill:rgb(249,234,11);stroke:rgb(249,234,11);stroke-width:0.35px;"/>
        </g>
        <g transform="matrix(0.61802,1.41523,-1.41523,0.61802,785.849,-978.17)">
            <path d="M815.338,316.002L816.704,320.207L821.126,320.207L817.549,322.806L818.915,327.012L815.338,324.413L811.76,327.012L813.127,322.806L809.549,320.207L813.971,320.207L815.338,316.002Z" style="fill:rgb(249,234,11);stroke:rgb(249,234,11);stroke-width:0.4px;"/>
        </g>
        <g transform="matrix(2.16375,0.137634,-0.137634,2.16375,-890.938,-311.41)">
            <path d="M815.825,186.489L816.426,188.339L818.371,188.339L816.797,189.483L817.399,191.333L815.825,190.189L814.251,191.333L814.852,189.483L813.278,188.339L815.223,188.339L815.825,186.489Z" style="fill:rgb(249,234,11);stroke:rgb(249,234,11);stroke-width:0.29px;"/>
        </g>
        <g transform="matrix(1.73484,-0.625837,0.625837,1.73484,-776.609,415.749)">
            <path d="M892.997,250.758L894.527,255.468L899.48,255.468L895.473,258.379L897.004,263.09L892.997,260.179L888.99,263.09L890.521,258.379L886.514,255.468L891.467,255.468L892.997,250.758Z" style="fill:rgb(249,234,11);stroke:rgb(249,234,11);stroke-width:0.34px;"/>
        </g>
        <g transform="matrix(1.42977,0.685622,-0.685622,1.42977,-226.269,-448.179)">
            <path d="M575.543,48.211L576.855,52.248L581.1,52.248L577.666,54.744L578.978,58.781L575.543,56.286L572.109,58.781L573.421,54.744L569.987,52.248L574.231,52.248L575.543,48.211Z" style="fill:rgb(249,234,11);stroke:rgb(249,234,11);stroke-width:0.39px;"/>
        </g>
        <g transform="matrix(1.97743,0.693937,-0.693937,1.97743,-448.446,-493.919)">
            <path d="M520.038,129.035L521.349,133.073L525.594,133.073L522.16,135.568L523.472,139.605L520.038,137.11L516.603,139.605L517.915,135.568L514.481,133.073L518.726,133.073L520.038,129.035Z" style="fill:rgb(249,234,11);stroke:rgb(249,234,11);stroke-width:0.3px;"/>
        </g>
    </g>
    <g id="CatPaws">
        <g transform="matrix(0.429308,-1.18781,1.13471,0.410116,108.071,849.988)">
            <circle cx="609.109" cy="215.424" r="3.319" style="fill:rgb(13,12,30);"/>
        </g>
        <g transform="matrix(0.30456,-0.84266,0.84266,0.30456,250.284,661.596)">
            <circle cx="612.737" cy="207.691" r="1.281" style="fill:rgb(13,12,30);"/>
        </g>
        <g transform="matrix(0.30456,-0.84266,0.84266,0.30456,245.813,667.352)">
            <circle cx="612.737" cy="207.691" r="1.281" style="fill:rgb(13,12,30);"/>
        </g>
        <g transform="matrix(0.30456,-0.84266,0.84266,0.30456,246.781,671.288)">
            <circle cx="612.737" cy="207.691" r="1.281" style="fill:rgb(13,12,30);"/>
        </g>
        <g transform="matrix(0.30456,-0.84266,0.84266,0.30456,246.959,664.18)">
            <circle cx="612.737" cy="207.691" r="1.281" style="fill:rgb(13,12,30);"/>
        </g>
        <g transform="matrix(1.26215,0.046822,-0.0447288,1.20572,14.6862,-170.846)">
            <circle cx="609.109" cy="215.424" r="3.319" style="fill:rgb(13,12,30);"/>
        </g>
        <g transform="matrix(0.895394,0.0332165,-0.0332165,0.895394,237.461,-92.825)">
            <circle cx="612.737" cy="207.691" r="1.281" style="fill:rgb(13,12,30);"/>
        </g>
        <g transform="matrix(0.895394,0.0332165,-0.0332165,0.895394,230.616,-95.3289)">
            <circle cx="612.737" cy="207.691" r="1.281" style="fill:rgb(13,12,30);"/>
        </g>
        <g transform="matrix(0.895394,0.0332165,-0.0332165,0.895394,227.162,-93.207)">
            <circle cx="612.737" cy="207.691" r="1.281" style="fill:rgb(13,12,30);"/>
        </g>
        <g transform="matrix(0.895394,0.0332165,-0.0332165,0.895394,233.986,-95.2039)">
            <circle cx="612.737" cy="207.691" r="1.281" style="fill:rgb(13,12,30);"/>
        </g>
    </g>
</svg>
