<?xml version="1.0" encoding="UTF-8" standalone="no"?>
<!DOCTYPE svg PUBLIC "-//W3C//DTD SVG 1.1//EN" "http://www.w3.org/Graphics/SVG/1.1/DTD/svg11.dtd">
<svg width="100%" height="100%" viewBox="0 0 1024 600" version="1.1" xmlns="http://www.w3.org/2000/svg" xmlns:xlink="http://www.w3.org/1999/xlink" xml:space="preserve" xmlns:serif="http://www.serif.com/" style="fill-rule:evenodd;clip-rule:evenodd;stroke-linecap:round;stroke-linejoin:round;stroke-miterlimit:1.5;">
    <g transform="matrix(1,0,0,1,899.233,-1.52155)">
        <path d="M86.728,-2.027L86.728,600.505" style="fill:none;stroke:rgb(255,0,7);stroke-width:1px;"/>
    </g>
    <g transform="matrix(1,0,0,1,0,-1.55806)">
        <path d="M-1.522,61.878L1022.48,61.878" style="fill:none;stroke:rgb(0,125,255);stroke-width:2px;"/>
    </g>
    <g transform="matrix(1,0,0,1,2.30058,18.149)">
        <path d="M-1.522,61.878L1022.48,61.878" style="fill:none;stroke:rgb(0,125,255);stroke-width:2px;"/>
    </g>
    <g transform="matrix(1,0,0,1,1.42109e-14,38.1725)">
        <path d="M-1.522,61.878L1022.48,61.878" style="fill:none;stroke:rgb(0,125,255);stroke-width:2px;"/>
    </g>
    <g transform="matrix(1,0,0,1,2.30058,57.8796)">
        <path d="M-1.522,61.878L1022.48,61.878" style="fill:none;stroke:rgb(0,125,255);stroke-width:2px;"/>
    </g>
    <g transform="matrix(1,0,0,1,0,78.6822)">
        <path d="M-1.522,61.878L1022.48,61.878" style="fill:none;stroke:rgb(0,125,255);stroke-width:2px;"/>
    </g>
    <g transform="matrix(1,0,0,1,2.30058,98.3892)">
        <path d="M-1.522,61.878L1022.48,61.878" style="fill:none;stroke:rgb(0,125,255);stroke-width:2px;"/>
    </g>
    <g transform="matrix(1,0,0,1,1.42109e-14,118.413)">
        <path d="M-1.522,61.878L1022.48,61.878" style="fill:none;stroke:rgb(0,125,255);stroke-width:2px;"/>
    </g>
    <g transform="matrix(1,0,0,1,2.30058,138.12)">
        <path d="M-1.522,61.878L1022.48,61.878" style="fill:none;stroke:rgb(0,125,255);stroke-width:2px;"/>
    </g>
    <g transform="matrix(1,0,0,1,0,158.486)">
        <path d="M-1.522,61.878L1022.48,61.878" style="fill:none;stroke:rgb(0,125,255);stroke-width:2px;"/>
    </g>
    <g transform="matrix(1,0,0,1,2.30058,178.193)">
        <path d="M-1.522,61.878L1022.48,61.878" style="fill:none;stroke:rgb(0,125,255);stroke-width:2px;"/>
    </g>
    <g transform="matrix(1,0,0,1,1.42109e-14,198.217)">
        <path d="M-1.522,61.878L1022.48,61.878" style="fill:none;stroke:rgb(0,125,255);stroke-width:2px;"/>
    </g>
    <g transform="matrix(1,0,0,1,2.30058,217.924)">
        <path d="M-1.522,61.878L1022.48,61.878" style="fill:none;stroke:rgb(0,125,255);stroke-width:2px;"/>
    </g>
    <g transform="matrix(1,0,0,1,0,238.726)">
        <path d="M-1.522,61.878L1022.48,61.878" style="fill:none;stroke:rgb(0,125,255);stroke-width:2px;"/>
    </g>
    <g transform="matrix(1,0,0,1,2.30058,258.433)">
        <path d="M-1.522,61.878L1022.48,61.878" style="fill:none;stroke:rgb(0,125,255);stroke-width:2px;"/>
    </g>
    <g transform="matrix(1,0,0,1,1.42109e-14,278.457)">
        <path d="M-1.522,61.878L1022.48,61.878" style="fill:none;stroke:rgb(0,125,255);stroke-width:2px;"/>
    </g>
    <g transform="matrix(1,0,0,1,2.30058,298.164)">
        <path d="M-1.522,61.878L1022.48,61.878" style="fill:none;stroke:rgb(0,125,255);stroke-width:2px;"/>
    </g>
    <g transform="matrix(1,0,0,1,0,318.818)">
        <path d="M-1.522,61.878L1022.48,61.878" style="fill:none;stroke:rgb(0,125,255);stroke-width:2px;"/>
    </g>
    <g transform="matrix(1,0,0,1,2.30058,338.525)">
        <path d="M-1.522,61.878L1022.48,61.878" style="fill:none;stroke:rgb(0,125,255);stroke-width:2px;"/>
    </g>
    <g transform="matrix(1,0,0,1,1.42109e-14,358.549)">
        <path d="M-1.522,61.878L1022.48,61.878" style="fill:none;stroke:rgb(0,125,255);stroke-width:2px;"/>
    </g>
    <g transform="matrix(1,0,0,1,2.30058,378.256)">
        <path d="M-1.522,61.878L1022.48,61.878" style="fill:none;stroke:rgb(0,125,255);stroke-width:2px;"/>
    </g>
    <g transform="matrix(1,0,0,1,0,399.059)">
        <path d="M-1.522,61.878L1022.48,61.878" style="fill:none;stroke:rgb(0,125,255);stroke-width:2px;"/>
    </g>
    <g transform="matrix(1,0,0,1,2.30058,418.766)">
        <path d="M-1.522,61.878L1022.48,61.878" style="fill:none;stroke:rgb(0,125,255);stroke-width:2px;"/>
    </g>
    <g transform="matrix(1,0,0,1,1.42109e-14,438.789)">
        <path d="M-1.522,61.878L1022.48,61.878" style="fill:none;stroke:rgb(0,125,255);stroke-width:2px;"/>
    </g>
    <g transform="matrix(1,0,0,1,3.54703,477.972)">
        <path d="M-1.522,61.878L1022.48,61.878" style="fill:none;stroke:rgb(0,125,255);stroke-width:2px;"/>
    </g>
    <g transform="matrix(1,0,0,1,1.24645,498.775)">
        <path d="M-1.522,61.878L1022.48,61.878" style="fill:none;stroke:rgb(0,125,255);stroke-width:2px;"/>
    </g>
    <g transform="matrix(1,0,0,1,3.54703,518.482)">
        <path d="M-1.522,61.878L1022.48,61.878" style="fill:none;stroke:rgb(0,125,255);stroke-width:2px;"/>
    </g>
    <g transform="matrix(1,0,0,1,1.24645,536.947)">
        <path d="M-1.522,61.878L1022.48,61.878" style="fill:none;stroke:rgb(0,125,255);stroke-width:2px;"/>
    </g>
    <g transform="matrix(1,0,0,1,2.30058,458.496)">
        <path d="M-1.522,61.878L1022.48,61.878" style="fill:none;stroke:rgb(0,125,255);stroke-width:2px;"/>
    </g>
    <path d="M86.728,-2.027L86.728,600.505" style="fill:none;stroke:rgb(255,0,7);stroke-width:2px;"/>
    <g transform="matrix(1,0,0,1,-1.55806,-10.9064)">
        <rect x="-5.216" y="-4.315" width="1030.09" height="618.432" style="fill:rgb(252,244,241);fill-opacity:0.8;"/>
    </g>
</svg>
