<?xml version="1.0" encoding="UTF-8" standalone="no"?>
<!DOCTYPE svg PUBLIC "-//W3C//DTD SVG 1.1//EN" "http://www.w3.org/Graphics/SVG/1.1/DTD/svg11.dtd">
<svg width="100%" height="100%" viewBox="0 0 600 600" version="1.1" xmlns="http://www.w3.org/2000/svg" xmlns:xlink="http://www.w3.org/1999/xlink" xml:space="preserve" xmlns:serif="http://www.serif.com/" style="fill-rule:evenodd;clip-rule:evenodd;stroke-linecap:round;stroke-linejoin:round;stroke-miterlimit:1.5;">
    <g id="Fire">
        <g transform="matrix(1,0,0,1.17698,0,-82.2027)">
            <path d="M299.582,549.661C324.27,537.317 324.372,525.752 332.206,497.387C335.186,500.996 336.727,506.884 344.449,514.634C349.376,495.246 340.448,464.476 340.448,464.476L299.621,464.476L299.754,464.528L258.927,464.528C258.927,464.528 249.999,495.298 254.926,514.686C262.648,506.936 264.189,501.048 267.169,497.439C275.003,525.803 274.894,537.317 299.582,549.661Z" style="fill:rgb(255,196,36);"/>
        </g>
        <g transform="matrix(0.907089,0,0,0.896358,27.498,48.1394)">
            <path d="M299.948,549.612C322.041,530.473 322.556,522.354 332.206,497.387C335.186,500.996 337.826,502.14 342.227,506.396C347.155,487.008 340.448,464.476 340.448,464.476L299.621,464.476L299.754,464.528L258.927,464.528C258.927,464.528 252.189,485.506 257.117,504.894C262.348,500.639 263.566,499.3 267.169,497.439C275.003,518.523 277.076,530.473 299.948,549.612Z" style="fill:rgb(255,217,36);"/>
        </g>
        <g transform="matrix(0.746807,0,0,0.460693,76.3053,250.495)">
            <path d="M299.015,549.597C320.563,530.916 324.657,517.08 332.206,497.387C334.662,499.746 336.384,499.808 339.657,502.714C344.585,483.326 340.448,464.476 340.448,464.476L299.621,464.476L299.754,464.528L258.927,464.528C258.927,464.528 253.992,482.425 258.919,501.813C263.501,498.437 264.974,497.923 267.169,497.439C275.003,525.803 278.313,532.91 299.004,549.59" style="fill:rgb(255,242,80);"/>
        </g>
    </g>
    <g id="Rocket">
        <g transform="matrix(1,0,0,1,-5.19178,-71.9079)">
            <path d="M261.275,501.997L168.851,441.206C168.851,441.206 126.911,520.734 147.792,556.928C164.916,532.789 216.727,504.781 261.275,501.997Z" style="fill:rgb(255,0,0);stroke:rgb(116,110,110);stroke-width:2.08px;"/>
        </g>
        <g transform="matrix(-1,0,0,1,603.43,-71.3631)">
            <path d="M261.275,501.997L168.851,441.206C168.851,441.206 126.911,520.734 147.792,556.928C164.916,532.789 216.727,504.781 261.275,501.997Z" style="fill:rgb(255,0,0);stroke:rgb(116,110,110);stroke-width:2.08px;"/>
        </g>
        <g transform="matrix(1,0,0,1,-2.19178,-71.9079)">
            <path d="M301.595,503.964L362.848,503.964C403.219,484.474 427.505,404.959 417.14,314.637C397.651,144.799 301.595,87.723 301.595,87.723L301.226,87.703C301.226,87.703 205.17,144.78 185.681,314.617C175.316,404.939 199.602,484.455 239.973,503.944L301.226,503.944" style="fill:rgb(242,239,239);stroke:rgb(116,110,110);stroke-width:2.08px;"/>
        </g>
        <g transform="matrix(1,0,0,1,-2.19178,-71.9079)">
            <path d="M238.22,502.389C238.22,502.389 305.889,485.152 364.623,504.544C365.298,512.529 363.706,523.197 349.833,526.877C333.484,531.214 304.101,527.856 299.827,528.244C295.753,528.615 264.223,529.761 249.28,524.821C235.243,520.18 237.6,509.695 238.22,502.389Z" style="fill:rgb(255,0,0);stroke:rgb(116,110,110);stroke-width:2.08px;"/>
        </g>
        <g transform="matrix(1,0,0,1.06947,-2.19178,-105.859)">
            <path d="M295.407,444.173L295.407,552.621L304.744,552.621L304.744,444.057L295.407,444.173Z" style="fill:rgb(255,0,0);stroke:rgb(116,110,110);stroke-width:2.01px;"/>
        </g>
        <g transform="matrix(1,0,0,1,-2.19178,-71.9079)">
            <path d="M301.323,88.083C301.323,88.083 266.389,107.848 233.754,164.385C270.458,180.448 294.19,180.793 300.112,180.872C306.234,180.952 332.413,180.155 369.117,164.092C336.482,107.555 301.549,87.79 301.549,87.79" style="fill:rgb(255,0,0);stroke:rgb(116,110,110);stroke-width:2.08px;"/>
        </g>
        <g transform="matrix(1,0,0,1,-3.9452,-68.4011)">
            <circle cx="301.692" cy="278.819" r="42.082" style="fill:rgb(53,180,189);stroke:rgb(255,0,0);stroke-width:6.25px;"/>
        </g>
    </g>
</svg>
