<?xml version="1.0" encoding="UTF-8" standalone="no"?>
<!DOCTYPE svg PUBLIC "-//W3C//DTD SVG 1.1//EN" "http://www.w3.org/Graphics/SVG/1.1/DTD/svg11.dtd">
<svg width="100%" height="100%" viewBox="0 0 600 600" version="1.1" xmlns="http://www.w3.org/2000/svg" xmlns:xlink="http://www.w3.org/1999/xlink" xml:space="preserve" xmlns:serif="http://www.serif.com/" style="fill-rule:evenodd;clip-rule:evenodd;stroke-linecap:round;stroke-linejoin:round;stroke-miterlimit:1.5;">
    <g transform="matrix(1.40655,-0.265862,0.298019,1.57668,-357.622,-307.423)">
        <path d="M332.124,305.234C332.124,305.234 321.798,322.703 339.675,328.538C360.078,328.588 369.662,311.567 356.538,293.57C350.608,285.438 329.98,286.879 317.708,291.241C305.436,300.196 297.444,316.219 308.851,340.232C318.1,359.703 332.005,361.9 348.294,364.017C366.364,366.366 386.096,357.533 397.168,339.636C409.481,319.733 397.559,290.703 378.207,272.823C360.957,256.885 322.987,257.107 292.864,280.23C269.806,297.93 268.368,353.601 285.548,363.763C315.657,381.573 408.288,373.723 381.326,417.937C375.716,427.138 340.648,426.575 351.242,452.535" style="fill:none;stroke:black;stroke-width:1.37px;"/>
    </g>
    <g transform="matrix(1.82949,-0.299953,0.299953,1.82949,-549.931,-388.167)">
        <ellipse cx="387.774" cy="477.086" rx="78.515" ry="13.921" style="fill:rgb(235,235,235);stroke:black;stroke-width:1.12px;"/>
    </g>
    <g transform="matrix(1.85392,0,0,1.85392,-416.3,-516.134)">
        <path d="M310.441,490.296C310.441,490.296 324.045,573.125 340.011,581.678C355.977,590.231 379.727,597.067 412.229,590.225C444.731,583.382 467.378,574.596 473.08,563.762C478.782,552.928 465.159,463.768 465.159,463.768" style="fill:none;stroke:black;stroke-width:1.12px;"/>
    </g>
    <g transform="matrix(1.72157,-0.687912,0.687912,1.72157,-814.6,-103.3)">
        <path d="M416.831,379.114C414.341,373.515 421.881,372.557 425.053,376.319C427.374,379.072 427.816,384.23 426.094,385.761C420.962,390.323 411.756,385.955 410.698,382.34C408.611,375.204 410.12,367.069 417.533,364.217C424.945,361.366 434.077,366.944 437.498,373.787C440.919,380.629 436.396,387.621 432.405,398.455C428.413,409.289 424.954,412.561 431.226,422.825" style="fill:none;stroke:black;stroke-width:1.12px;"/>
    </g>
    <g transform="matrix(-1.8965,-0.346572,-0.420767,2.3025,1321.6,-520.672)">
        <path d="M418.3,381.51C416.693,378.039 424.781,379.351 423.697,382.695C423.491,383.33 422.231,385.079 420.867,385.375C419.322,385.71 417.516,384.689 417.214,384.401C415.574,382.84 414.746,378.082 416.206,376.98C418.68,375.112 425.461,375.201 426.922,376.934C429.243,379.687 427.816,384.23 426.094,385.761C420.962,390.323 412.111,385.872 410.698,382.34C408.737,377.437 411.323,369.83 419.411,368.82C427.117,367.858 436.039,371.375 435.998,377.875C435.952,385.275 424.147,391.06 420.155,401.894C416.164,412.728 433.296,415.618 421.647,424.652" style="fill:none;stroke:black;stroke-width:0.97px;"/>
    </g>
    <g transform="matrix(1.85392,0,0,1.85392,-427.991,-520.031)">
        <path d="M301.914,441.182C301.914,441.182 314.322,441.182 315.417,445.926C316.512,450.671 311.994,457.868 315.052,460.524C318.277,463.325 328.555,461.619 330.379,466.728" style="fill:none;stroke:black;stroke-width:1.12px;"/>
    </g>
    <g transform="matrix(-1.40789,0.435243,0.507514,1.64166,609.648,-597.181)">
        <path d="M301.914,441.182C301.914,441.182 314.322,441.182 315.417,445.926C316.512,450.671 311.994,457.868 315.052,460.524C318.277,463.325 328.555,461.619 330.379,466.728" style="fill:none;stroke:black;stroke-width:1.3px;"/>
    </g>
</svg>
